<?xml version="1.0" encoding="UTF-8"?>
<!DOCTYPE svg PUBLIC "-//W3C//DTD SVG 1.1//EN" "http://www.w3.org/Graphics/SVG/1.1/DTD/svg11.dtd">
<!-- Creator: CorelDRAW 2020 (64 Bit) -->
<svg xmlns="http://www.w3.org/2000/svg" xml:space="preserve" width="183.75mm" height="183.828mm" version="1.1" style="shape-rendering:geometricPrecision; text-rendering:geometricPrecision; image-rendering:optimizeQuality; fill-rule:evenodd; clip-rule:evenodd"
viewBox="0 0 5106.37 5108.54"
 xmlns:xlink="http://www.w3.org/1999/xlink"
 xmlns:xodm="http://www.corel.com/coreldraw/odm/2003">
 <defs>
  <style type="text/css">
   <![CDATA[
    .fil0 {fill:#0098DA;fill-rule:nonzero}
   ]]>
  </style>
 </defs>
 <g id="Camada_x0020_1">
  <metadata id="CorelCorpID_0Corel-Layer"/>
  <g id="_1762996068240">
   <g id="User">
    <path class="fil0" d="M3396.21 2649.72c386.19,-273.45 615.96,-717.5 615.96,-1190.76 0,-805.63 -653.33,-1458.96 -1458.96,-1458.96 -805.63,0 -1458.96,653.33 -1458.96,1458.96 0,473.26 229.77,917.31 615.93,1190.71 -1011.81,294.84 -1709.02,1222.52 -1710.18,2276.59 0,100.6 81.67,182.27 182.37,182.27l4741.63 0c100.7,-0 182.37,-81.67 182.37,-182.37 -1.16,-1053.99 -698.37,-1981.67 -1710.12,-2276.5l-0.04 0.05zm-1937.24 -1188.59c0,-604.22 490.01,-1094.22 1094.22,-1094.22 604.22,0 1094.22,490 1094.22,1094.22 0,604.22 -490,1094.22 -1094.22,1094.22 -603.93,-0.53 -1093.69,-490.29 -1094.22,-1094.27l0 0.04zm-1086.02 3282.66c95.44,-1032.08 961.13,-1822.48 1997.76,-1823.71l364.85 0c1036.74,1.22 1902.43,791.63 1997.82,1823.59l-4360.43 0.12z"/>
   </g>
  </g>
 </g>
</svg>
